<svg width="149" height="162" viewBox="0 0 149 162" fill="none" xmlns="http://www.w3.org/2000/svg">
<path d="M146.055 77.9948C145.223 77.107 143.226 76.4712 142.112 76.1655C140.607 75.7531 139.048 75.5536 137.503 75.4C133.95 75.047 130.355 74.9017 126.79 74.7325C121.582 74.4846 116.236 75.2485 111.024 75.3459C105.898 75.4412 100.313 74.4846 95.1876 74.5309C95.0536 74.532 95.1297 73.5603 94.9958 73.5629C96.9054 72.5719 99.5421 71.3477 101.426 70.3031C104.775 68.4451 108.02 65.9519 111.312 63.9861C117.301 60.4087 123.021 57.6139 126.73 51.2229C127.992 49.0478 129.694 46.3161 129.259 43.7114C129.073 42.5944 128.708 41.6597 128.155 40.7057C127.83 40.1443 126.612 39.7298 126.011 39.5267C125.25 39.2705 124.417 39.2091 123.625 39.2711C121.959 39.4007 120.374 40.0043 118.844 40.6817C117.374 41.3327 115.804 41.9367 114.476 42.8813C111.773 44.8028 109.777 46.3874 106.908 48.086C103.673 50.0023 100.047 52.2269 97.0433 54.5947C95.1679 56.0725 92.4616 59.2797 90.677 60.8789C90.677 58.9938 92.7324 56.5849 93.9401 55.2237C96.2785 52.5893 99.2595 49.7081 101.186 46.717C103.35 43.3588 105.725 39.9918 107.608 36.4492C108.585 34.61 109.478 32.713 110.504 30.9039C111.387 29.3459 112.432 27.7363 112.662 25.8919C112.848 24.3943 112.847 21.8833 112.162 20.5986C111.507 19.3713 110.657 17.6273 108.96 17.7825C106.398 18.0158 105.314 20.8278 104.305 22.5706C103.629 23.7397 102.575 25.0962 101.858 26.2387C100.754 27.9998 99.3581 29.7828 98.1151 31.4346C95.8733 34.4132 93.6267 37.5131 91.3967 40.5021C90.2508 42.0382 88.9253 42.8995 87.7775 44.4336C86.7061 45.8661 85.596 47.2654 84.5188 48.6932C82.928 50.7996 81.1606 54.8535 80.024 57.1603C80.178 54.4957 80.2825 50.4132 80.5037 47.4299C80.6558 45.3798 81.0144 43.0693 80.9835 41.0114C80.9526 38.9539 80.6759 37.0434 80.4557 35.0005C80.0029 30.8024 79.4236 26.4465 79.5438 22.2145C79.6551 18.3001 80.4866 14.3441 79.5742 10.5058C78.8344 7.39388 77.6674 3.75917 74.8409 2.29643C73.6479 1.67884 72.4618 0.00937092 71.2899 0.768079C70.0768 1.55334 68.562 4.85219 67.9842 6.19828C67.3205 7.74486 67.0782 9.25707 66.9746 10.9422C66.8378 13.1709 66.7765 15.4048 66.7402 17.6377C66.6681 22.0968 67.1552 26.6699 67.2111 31.1289C67.2744 36.1592 67.3224 41.3415 67.6428 46.3603C67.8341 49.3478 68.2559 54.3421 68.6028 57.3129C67.6423 54.6436 65.0763 49.416 63.8519 46.8696C61.6283 42.2455 59.9933 38.4171 57.3738 34.0325C56.2833 32.2078 55.2439 30.1759 53.7315 28.7205C52.1942 27.2406 50.5185 25.9294 48.8502 24.6223C47.045 23.208 43.7589 20.8444 41.6339 20.0237C39.0943 19.0432 35.9931 17.9585 34.5799 21.2975C33.6395 23.5179 35.0856 26.2179 36.0191 28.2253C37.8351 32.1308 41.6437 36.6638 44.609 39.6361C47.6935 42.7282 50.1835 45.5568 52.5753 49.315C55.0771 53.2465 56.9912 57.316 59.101 61.4897C59.1422 61.5715 58.4363 62.3255 58.4775 62.4067C55.3979 60.3061 51.7458 58.0742 48.5441 56.1923C44.659 53.9078 41.0977 52.2217 37.219 49.9263C33.5007 47.7257 29.9232 45.4949 25.8458 44.1191C22.5259 42.9985 18.6113 40.7447 15.5283 42.9474C14.1106 43.9603 12.8166 45.1678 13.0329 47.0227C13.2708 49.0588 14.7989 51.8134 16.0326 53.3163C17.3634 54.9368 19.3266 55.9304 21.1911 56.8031C23.0267 57.6623 25.4519 58.0023 27.3336 58.7392C31.5692 60.4013 35.7923 62.0993 40.0023 63.833C44.1626 65.5431 48.0947 67.1485 52.1908 69.0294C53.5545 69.6553 54.6523 70.6713 55.886 71.5591C56.092 71.7075 55.886 72.0637 56.0758 72.2543C55.7854 72.3038 55.4882 72.359 55.1095 72.3876C54.0278 72.4688 52.9437 72.5094 51.8601 72.5433C46.0178 72.7245 39.9915 73.3567 34.1477 73.3088C30.5369 73.2786 27.0398 72.9193 23.4304 72.8328C19.1588 72.7302 14.9627 72.4589 10.7431 73.1869C7.96761 73.6655 3.94567 74.2862 2.21995 76.9081C1.57637 77.8855 1.12311 78.9806 1.42037 80.1684C1.6627 81.139 3.0367 82.2321 3.86964 82.5846C6.25661 83.5959 9.39312 82.8434 11.9135 82.8174C15.0888 82.7845 18.3425 83.4995 21.5109 83.8135C26.2721 84.2853 30.8125 84.3509 35.5875 84.668C37.8641 84.8196 40.3751 84.9831 42.6414 85.2794C44.892 85.5741 46.9081 85.8824 49.1681 86.0943C50.235 86.1948 52.101 86.5406 53.1689 86.5526C51.607 87.2514 49.1779 88.8256 47.6322 89.5588C44.3063 91.1366 41.395 93.0982 38.3227 95.1618C35.3628 97.1511 32.1174 99.1455 29.3488 101.428C26.7538 103.568 24.2015 105.366 22.3797 108.3C21.1484 110.284 18.7369 115.606 20.7113 118.493C21.5845 119.77 23.1891 119.643 24.3492 119.635C26.0121 119.626 27.5966 118.997 29.1045 118.314C30.7061 117.587 31.8554 116.666 33.4281 115.87C34.9718 115.088 36.9222 113.871 38.3467 112.864C39.7776 111.853 41.0918 110.849 42.5693 109.91C44.1847 108.882 45.8839 108.009 47.5125 107.006C49.147 105.999 50.4175 104.439 51.9273 103.236C53.6933 101.829 56.5634 100.104 58.3338 98.7023C57.8295 101.122 55.5411 102.856 54.3506 104.128C52.309 106.309 50.1663 108.594 48.4479 111.081C46.3421 114.13 44.5251 117.202 42.5933 120.378C41.6015 122.01 40.3879 123.688 39.4745 125.37C38.6156 126.953 37.3514 127.979 37.0983 129.817C36.8786 131.417 36.8992 133.129 36.9369 134.744C36.9698 136.14 37.3333 138.279 38.3708 139.125C39.4353 139.992 40.9996 139.613 42.3451 139.323C43.7275 139.024 44.9376 138.021 45.928 137.003C47.0798 135.819 47.5772 133.94 48.496 132.553C49.5526 130.958 50.6201 129.403 51.6154 127.764C53.3519 124.906 55.0173 121.966 56.7498 119.105C58.6139 116.027 60.3538 112.701 62.0766 109.528C63.4869 106.929 65.6208 103.146 66.8751 100.46C67.6786 105.511 65.6301 117.138 66.5395 124.403C67.1066 128.934 67.5599 133.147 67.6055 137.733C67.6477 141.975 68.1549 146.251 69.4695 150.271C70.0719 152.114 70.8553 153.862 71.7216 155.58C72.3902 156.906 73.0608 158.888 74.2175 159.807C75.2594 160.635 76.3768 161.579 77.4325 160.724C78.5102 159.851 79.1871 156.947 79.3711 155.588C79.5982 153.91 79.6247 152.207 79.816 150.524C80.077 148.228 80.4733 145.952 80.8265 143.671C81.1782 141.399 81.4995 139.115 81.6516 136.816C81.8042 134.51 81.268 131.807 81.3195 129.497C81.4363 124.269 81.7281 119.327 81.2714 114.112C81.0767 111.886 80.6583 107.758 80.3119 105.554C81.5113 107.082 82.8495 111.152 83.7187 112.992C85.9576 117.731 88.5157 122.115 91.2534 126.542C92.2845 128.21 93.0012 129.902 94.4979 131.115C96.0534 132.376 97.7374 133.44 99.3925 134.543C101.266 135.792 102.944 137.376 104.977 138.334C107.197 139.381 112.447 142.475 113.279 138.666C113.824 136.172 111.803 132.318 110.688 130.261C108.503 126.23 105.765 122.308 103.202 118.544C100.35 114.355 97.0668 110.379 94.1805 106.216C92.3606 103.592 90.5848 100.596 89.0455 97.7603C89.2506 97.8426 90.4337 97.5062 90.6295 97.6072C91.6988 98.1623 93.1396 99.0028 94.1319 99.6959C96.9986 101.697 99.3488 103.596 102.242 105.554C105.541 107.786 108.451 110.281 112.094 111.814C115.555 113.27 119.153 114.367 122.802 115.15C124.319 115.476 125.854 115.772 127.394 115.948C128.828 116.112 131.514 116.356 132.762 115.488C135.246 113.761 135.346 109.497 132.811 107.337C131.613 106.318 116.692 99.3074 113.135 97.4036C108.995 95.1884 104.386 93.5122 100.179 91.4438C98.1303 90.4362 96.3256 88.8469 94.3281 87.6602C95.7826 87.5992 97.237 87.5097 98.6881 87.4404C102.248 87.2701 105.926 86.6125 109.488 86.5021C112.939 86.3958 116.139 86.0725 119.566 86.6041C124.022 87.2951 129.675 88.5095 134.202 88.0814C137.81 87.7404 142.542 86.7015 145.431 84.2098C147.166 82.7132 148.017 80.0877 146.055 77.9948ZM146.055 77.9948C145.223 77.107 143.226 76.4712 142.112 76.1655C140.607 75.7531 139.048 75.5536 137.503 75.4C133.95 75.047 130.355 74.9017 126.79 74.7325C121.582 74.4846 116.236 75.2485 111.024 75.3459C105.898 75.4412 100.313 74.4846 95.1876 74.5309C95.0536 74.532 95.1297 73.5603 94.9958 73.5629C96.9054 72.5719 99.5421 71.3477 101.426 70.3031C104.775 68.4451 108.02 65.9519 111.312 63.9861C117.301 60.4087 123.021 57.6139 126.73 51.2229C127.992 49.0478 129.694 46.3161 129.259 43.7114C129.073 42.5944 128.708 41.6597 128.155 40.7057C127.83 40.1443 126.612 39.7298 126.011 39.5267C125.25 39.2705 124.417 39.2091 123.625 39.2711C121.959 39.4007 120.374 40.0043 118.844 40.6817C117.374 41.3327 115.804 41.9367 114.476 42.8813C111.773 44.8028 109.777 46.3874 106.908 48.086C103.673 50.0023 100.047 52.2269 97.0433 54.5947C95.1679 56.0725 92.4616 59.2797 90.677 60.8789C90.677 58.9938 92.7324 56.5849 93.9401 55.2237C96.2785 52.5893 99.2595 49.7081 101.186 46.717C103.35 43.3588 105.725 39.9918 107.608 36.4492C108.585 34.61 109.478 32.713 110.504 30.9039C111.387 29.3459 112.432 27.7363 112.662 25.8919C112.848 24.3943 112.847 21.8833 112.162 20.5986C111.507 19.3713 110.657 17.6273 108.96 17.7825C106.398 18.0158 105.314 20.8278 104.305 22.5706C103.629 23.7397 102.575 25.0962 101.858 26.2387C100.754 27.9998 99.3581 29.7828 98.1151 31.4346C95.8733 34.4132 93.6267 37.5131 91.3967 40.5021C90.2508 42.0382 88.9253 42.8995 87.7775 44.4336C86.7061 45.8661 85.596 47.2654 84.5188 48.6932C82.928 50.7996 81.1606 54.8535 80.024 57.1603C80.178 54.4957 80.2825 50.4132 80.5037 47.4299C80.6558 45.3798 81.0144 43.0693 80.9835 41.0114C80.9526 38.9539 80.6759 37.0434 80.4557 35.0005C80.0029 30.8024 79.4236 26.4465 79.5438 22.2145C79.6551 18.3001 80.4866 14.3441 79.5742 10.5058C78.8344 7.39388 77.6674 3.75917 74.8409 2.29643C73.6479 1.67884 72.4618 0.00937092 71.2899 0.768079C70.0768 1.55334 68.562 4.85219 67.9842 6.19828C67.3205 7.74486 67.0782 9.25707 66.9746 10.9422C66.8378 13.1709 66.7765 15.4048 66.7402 17.6377C66.6681 22.0968 67.1552 26.6699 67.2111 31.1289C67.2744 36.1592 67.3224 41.3415 67.6428 46.3603C67.8341 49.3478 68.2559 54.3421 68.6028 57.3129C67.6423 54.6436 65.0763 49.416 63.8519 46.8696C61.6283 42.2455 59.9933 38.4171 57.3738 34.0325C56.2833 32.2078 55.2439 30.1759 53.7315 28.7205C52.1942 27.2406 50.5185 25.9294 48.8502 24.6223C47.045 23.208 43.7589 20.8444 41.6339 20.0237C39.0943 19.0432 35.9931 17.9585 34.5799 21.2975C33.6395 23.5179 35.0856 26.2179 36.0191 28.2253C37.8351 32.1308 41.6437 36.6638 44.609 39.6361C47.6935 42.7282 50.1835 45.5568 52.5753 49.315C55.0771 53.2465 56.9912 57.316 59.101 61.4897C59.1422 61.5715 58.4363 62.3255 58.4775 62.4067C55.3979 60.3061 51.7458 58.0742 48.5441 56.1923C44.659 53.9078 41.0977 52.2217 37.219 49.9263C33.5007 47.7257 29.9232 45.4949 25.8458 44.1191C22.5259 42.9985 18.6113 40.7447 15.5283 42.9474C14.1106 43.9603 12.8166 45.1678 13.0329 47.0227C13.2708 49.0588 14.7989 51.8134 16.0326 53.3163C17.3634 54.9368 19.3266 55.9304 21.1911 56.8031C23.0267 57.6623 25.4519 58.0023 27.3336 58.7392C31.5692 60.4013 35.7923 62.0993 40.0023 63.833C44.1626 65.5431 48.0947 67.1485 52.1908 69.0294C53.5545 69.6553 54.6523 70.6713 55.886 71.5591C56.092 71.7075 55.886 72.0637 56.0758 72.2543C55.7854 72.3038 55.4882 72.359 55.1095 72.3876C54.0278 72.4688 52.9437 72.5094 51.8601 72.5433C46.0178 72.7245 39.9915 73.3567 34.1477 73.3088C30.5369 73.2786 27.0398 72.9193 23.4304 72.8328C19.1588 72.7302 14.9627 72.4589 10.7431 73.1869C7.96761 73.6655 3.94567 74.2862 2.21995 76.9081C1.57637 77.8855 1.12311 78.9806 1.42037 80.1684C1.6627 81.139 3.0367 82.2321 3.86964 82.5846C6.25661 83.5959 9.39312 82.8434 11.9135 82.8174C15.0888 82.7845 18.3425 83.4995 21.5109 83.8135C26.2721 84.2853 30.8125 84.3509 35.5875 84.668C37.8641 84.8196 40.3751 84.9831 42.6414 85.2794C44.892 85.5741 46.9081 85.8824 49.1681 86.0943C50.235 86.1948 52.101 86.5406 53.1689 86.5526C51.607 87.2514 49.1779 88.8256 47.6322 89.5588C44.3063 91.1366 41.395 93.0982 38.3227 95.1618C35.3628 97.1511 32.1174 99.1455 29.3488 101.428C26.7538 103.568 24.2015 105.366 22.3797 108.3C21.1484 110.284 18.7369 115.606 20.7113 118.493C21.5845 119.77 23.1891 119.643 24.3492 119.635C26.0121 119.626 27.5966 118.997 29.1045 118.314C30.7061 117.587 31.8554 116.666 33.4281 115.87C34.9718 115.088 36.9222 113.871 38.3467 112.864C39.7776 111.853 41.0918 110.849 42.5693 109.91C44.1847 108.882 45.8839 108.009 47.5125 107.006C49.147 105.999 50.4175 104.439 51.9273 103.236C53.6933 101.829 56.5634 100.104 58.3338 98.7023C57.8295 101.122 55.5411 102.856 54.3506 104.128C52.309 106.309 50.1663 108.594 48.4479 111.081C46.3421 114.13 44.5251 117.202 42.5933 120.378C41.6015 122.01 40.3879 123.688 39.4745 125.37C38.6156 126.953 37.3514 127.979 37.0983 129.817C36.8786 131.417 36.8992 133.129 36.9369 134.744C36.9698 136.14 37.3333 138.279 38.3708 139.125C39.4353 139.992 40.9996 139.613 42.3451 139.323C43.7275 139.024 44.9376 138.021 45.928 137.003C47.0798 135.819 47.5772 133.94 48.496 132.553C49.5526 130.958 50.6201 129.403 51.6154 127.764C53.3519 124.906 55.0173 121.966 56.7498 119.105C58.6139 116.027 60.3538 112.701 62.0766 109.528C63.4869 106.929 65.6208 103.146 66.8751 100.46C67.6786 105.511 65.6301 117.138 66.5395 124.403C67.1066 128.934 67.5599 133.147 67.6055 137.733C67.6477 141.975 68.1549 146.251 69.4695 150.271C70.0719 152.114 70.8553 153.862 71.7216 155.58C72.3902 156.906 73.0608 158.888 74.2175 159.807C75.2594 160.635 76.3768 161.579 77.4325 160.724C78.5102 159.851 79.1871 156.947 79.3711 155.588C79.5982 153.91 79.6247 152.207 79.816 150.524C80.077 148.228 80.4733 145.952 80.8265 143.671C81.1782 141.399 81.4995 139.115 81.6516 136.816C81.8042 134.51 81.268 131.807 81.3195 129.497C81.4363 124.269 81.7281 119.327 81.2714 114.112C81.0767 111.886 80.6583 107.758 80.3119 105.554C81.5113 107.082 82.8495 111.152 83.7187 112.992C85.9576 117.731 88.5157 122.115 91.2534 126.542C92.2845 128.21 93.0012 129.902 94.4979 131.115C96.0534 132.376 97.7374 133.44 99.3925 134.543C101.266 135.792 102.944 137.376 104.977 138.334C107.197 139.381 112.447 142.475 113.279 138.666C113.824 136.172 111.803 132.318 110.688 130.261C108.503 126.23 105.765 122.308 103.202 118.544C100.35 114.355 97.0668 110.379 94.1805 106.216C92.3606 103.592 90.5848 100.596 89.0455 97.7603C89.2506 97.8426 90.4337 97.5062 90.6295 97.6072C91.6988 98.1623 93.1396 99.0028 94.1319 99.6959C96.9986 101.697 99.3488 103.596 102.242 105.554C105.541 107.786 108.451 110.281 112.094 111.814C115.555 113.27 119.153 114.367 122.802 115.15C124.319 115.476 125.854 115.772 127.394 115.948C128.828 116.112 131.514 116.356 132.762 115.488C135.246 113.761 135.346 109.497 132.811 107.337C131.613 106.318 116.692 99.3074 113.135 97.4036C108.995 95.1884 104.386 93.5122 100.179 91.4438C98.1303 90.4362 96.3256 88.8469 94.3281 87.6602C95.7826 87.5992 97.237 87.5097 98.6881 87.4404C102.248 87.2701 105.926 86.6125 109.488 86.5021C112.939 86.3958 116.139 86.0725 119.566 86.6041C124.022 87.2951 129.675 88.5095 134.202 88.0814C137.81 87.7404 142.542 86.7015 145.431 84.2098C147.166 82.7132 148.017 80.0877 146.055 77.9948Z" fill="#FECDDC"/>
<path d="M82.3359 74.3263C84.5419 79.23 82.5277 84.4181 79.1081 87.3644C75.6886 90.3107 64.7638 90.2206 64.284 81.049C63.8038 71.8773 71.961 70.1479 74.0105 69.4741C78.5573 67.9796 80.1304 69.4226 82.3359 74.3263ZM82.3359 74.3263C84.5419 79.23 82.5277 84.4181 79.1081 87.3644C75.6886 90.3107 64.7638 90.2206 64.284 81.049C63.8038 71.8773 71.961 70.1479 74.0105 69.4741C78.5573 67.9796 80.1304 69.4226 82.3359 74.3263Z" fill="#FF7134"/>
<path d="M146.927 77.7189C146.076 76.8107 144.818 76.366 143.679 76.0536C142.139 75.6318 140.544 75.4271 138.964 75.2699C135.329 74.909 131.651 74.7606 128.005 74.5872C122.677 74.3336 117.348 74.3247 112.017 74.4242C106.772 74.5221 101.56 73.6894 96.3164 73.7368C96.1796 73.7384 96.0432 73.7477 95.9063 73.7504C97.8597 72.737 99.8218 71.7419 101.75 70.6728C105.176 68.7721 108.427 66.559 111.794 64.548C117.922 60.8882 124.149 57.0754 127.943 50.5371C129.234 48.312 130.322 45.5975 129.876 42.9323C129.685 41.7899 129.083 40.7427 128.517 39.7663C128.185 39.1919 127.822 38.7795 127.208 38.5722C126.429 38.3098 125.577 38.2473 124.766 38.3103C123.063 38.4431 121.44 39.0602 119.876 39.7533C118.372 40.4193 116.766 41.0374 115.407 42.0039C112.642 43.9696 110.599 45.5907 107.665 47.3284C104.355 49.2879 100.646 51.564 97.5737 53.9859C95.6557 55.4987 93.8299 57.1348 92.0036 58.771C93.1848 57.3332 94.4082 55.9324 95.6434 54.5405C98.0358 51.8452 100.231 49.0968 102.202 46.0369C104.414 42.6022 106.455 39.0477 108.381 35.4239C109.381 33.5425 110.294 31.6017 111.344 29.751C112.247 28.1565 113.316 26.5105 113.551 24.6239C113.742 23.0914 113.741 20.5231 113.04 19.2083C112.37 17.9533 111.312 16.865 109.577 17.0238C106.955 17.2628 105.289 19.1671 104.258 20.9501C103.565 22.1462 102.96 23.4028 102.227 24.5718C101.097 26.3736 99.7914 28.0738 98.5199 29.7635C96.2262 32.8114 93.8147 35.7566 91.5332 38.8139C90.3608 40.386 89.2693 42.0221 88.0945 43.5921C86.9986 45.0575 85.863 46.4889 84.7608 47.9486C83.1337 50.1039 81.8578 52.354 80.6952 54.7139C80.8527 51.9889 80.965 49.4389 81.1906 46.3874C81.3466 44.2899 81.4923 42.1783 81.4604 40.0735C81.429 37.9682 81.2279 35.8712 81.0028 33.781C80.5392 29.487 80.1217 25.2514 80.2449 20.9215C80.3587 16.917 80.6363 12.8105 79.7028 8.8837C78.9459 5.70046 77.2099 2.39329 74.3182 0.896701C73.0977 0.265052 71.7512 0.115601 70.5528 0.891493C69.3117 1.6955 68.4371 3.0994 67.8465 4.47674C67.1671 6.05977 66.9193 7.60634 66.8134 9.32997C66.6736 11.6103 66.6103 13.8952 66.5735 16.1797C66.4999 20.7413 66.3739 25.3165 66.4313 29.8786C66.4955 35.0235 66.6245 40.2167 66.9527 45.3511C67.1479 48.4068 67.5227 51.4437 67.8774 54.4822C66.8948 51.752 65.8588 49.0442 64.606 46.4395C62.3313 41.7086 59.8281 37.0194 57.1483 32.5338C56.0333 30.667 54.8133 29.0059 53.2662 27.5171C51.693 26.0033 49.9786 24.6619 48.2725 23.3252C46.4256 21.8781 44.7926 20.3351 42.6185 19.4957C40.0206 18.4928 35.2251 17.569 33.779 20.985C32.8175 23.2565 33.9099 26.0184 34.865 28.0722C36.7227 32.0673 39.3824 35.3958 42.4159 38.4363C45.5715 41.5998 48.7566 44.6039 51.2029 48.4485C53.7626 52.4711 55.8189 56.8239 57.9773 61.0939C58.0195 61.1773 58.0636 61.2595 58.1058 61.3428C54.9556 59.1938 51.7293 57.1702 48.454 55.2445C44.4796 52.9075 40.3919 50.8027 36.4244 48.4542C32.6203 46.2036 28.7995 43.8681 24.6284 42.46C21.2324 41.3139 17.3218 40.6489 14.1682 42.9021C12.7176 43.9384 11.8229 45.4694 12.0441 47.3674C12.2874 49.4504 13.4377 51.1412 14.7004 52.6789C16.0616 54.3364 17.5073 55.6934 19.4145 56.5865C21.2923 57.4655 23.2088 58.2481 25.1337 59.0022C29.473 60.7018 33.854 62.2755 38.1683 64.0481C42.4247 65.7977 46.7523 67.3818 50.943 69.3064C52.3376 69.9469 53.7636 70.6114 55.0262 71.5201C55.2371 71.6721 55.4692 71.857 55.6639 72.0522C55.3671 72.1028 55.0625 72.159 54.6755 72.1881C53.5693 72.2715 52.4597 72.3131 51.3516 72.3475C45.3748 72.5334 39.3898 72.4871 33.4116 72.4376C29.7178 72.4063 26.0338 72.1632 22.341 72.0746C17.9713 71.97 13.6055 72.2616 9.28876 73.0057C6.44952 73.4952 2.89556 74.244 1.12961 76.9258C0.471307 77.9256 0.0258965 79.4513 0.330031 80.6667C0.577754 81.6598 1.40529 82.2591 2.25736 82.6195C4.69927 83.6542 7.65674 83.486 10.235 83.4594C13.4834 83.4261 16.7984 84.1265 20.0399 84.4473C24.91 84.93 29.6187 84.9628 34.503 85.2877C36.8321 85.4424 39.1455 85.5595 41.4638 85.8626C43.7664 86.1641 46.0616 86.5338 48.3735 86.751C49.465 86.8536 50.5574 86.9124 51.6503 86.9254C50.0521 87.6399 48.4343 88.309 46.8528 89.0589C43.4505 90.6726 40.3144 92.7206 37.1715 94.8322C34.1434 96.8662 31.1428 98.9595 28.3114 101.295C25.6561 103.484 23.0567 105.925 21.1932 108.927C19.9335 110.957 17.9242 115.964 19.9438 118.918C20.8366 120.225 22.0207 120.53 23.2078 120.523C24.9085 120.513 26.5298 119.87 28.072 119.17C29.7104 118.427 31.3586 117.678 32.9666 116.863C34.5462 116.064 36.0821 115.166 37.5394 114.136C39.0032 113.101 40.3782 111.955 41.89 110.993C43.5427 109.942 45.2522 108.997 46.9181 107.97C48.5903 106.94 50.1419 105.772 51.6866 104.541C53.4933 103.101 55.3043 101.669 57.1154 100.236C55.973 101.607 54.7765 102.929 53.559 104.231C51.4698 106.462 49.3109 108.651 47.5528 111.195C45.3989 114.314 43.3102 117.499 41.3343 120.748C40.318 122.416 39.3416 124.112 38.4057 125.832C37.5272 127.45 36.5088 129.057 36.2503 130.938C36.0247 132.575 36.0457 134.327 36.085 135.979C36.1184 137.407 36.7487 138.651 37.8102 139.516C38.8992 140.403 40.2408 140.959 41.6173 140.662C43.0315 140.357 44.2692 139.33 45.2826 138.289C46.4609 137.078 47.4037 135.651 48.3436 134.233C49.423 132.6 50.4714 130.944 51.4879 129.267C53.2637 126.342 54.9487 123.356 56.721 120.43C58.6278 117.281 60.6086 114.201 62.3706 110.955C63.8128 108.297 65.1588 105.583 66.4421 102.834C65.773 110.257 65.0293 117.698 65.9599 125.13C66.5402 129.765 67.4119 134.345 67.4585 139.037C67.5016 143.375 68.0206 147.75 69.3652 151.863C69.9818 153.748 70.7828 155.537 71.6697 157.294C72.3536 158.65 73.1026 160.115 74.2858 161.055C75.3517 161.902 76.7483 161.984 77.8285 161.109C78.9312 160.216 79.3065 158.693 79.4948 157.302C79.7269 155.585 79.7543 153.843 79.9501 152.121C80.2169 149.773 80.6226 147.444 80.9836 145.111C81.3432 142.786 81.6723 140.451 81.8278 138.098C81.9838 135.739 81.9657 133.363 82.0187 131C82.1379 125.652 82.3836 120.226 81.9166 114.891C81.7175 112.614 81.3746 110.358 81.0204 108.103C81.6454 110.092 82.3316 112.057 83.221 113.939C85.5108 118.787 88.3707 123.403 91.1712 127.932C92.2258 129.638 93.4384 131.025 94.9694 132.266C96.5607 133.556 98.2835 134.645 99.9768 135.773C101.894 137.051 103.61 138.671 105.69 139.651C107.961 140.722 113.158 142.45 114.009 138.553C114.566 136.001 112.99 133.09 111.849 130.986C109.614 126.863 106.862 123.011 104.24 119.161C101.321 114.875 98.3296 110.647 95.3765 106.388C93.5145 103.703 91.4841 101.023 89.91 98.1212C90.1194 98.2055 90.324 98.3034 90.5241 98.4076C91.618 98.9752 92.6472 99.687 93.6631 100.396C96.5955 102.442 99.45 104.611 102.41 106.613C105.784 108.897 109.244 110.954 112.97 112.522C116.51 114.011 120.191 115.133 123.924 115.934C125.476 116.267 127.046 116.57 128.622 116.751C130.089 116.919 131.716 116.884 132.994 115.996C135.535 114.229 136.583 109.322 133.989 107.113C132.765 106.07 117.723 99.2657 114.083 97.3187C109.848 95.0525 105.428 93.1716 101.124 91.0554C99.0286 90.0248 96.8393 89.0261 94.7958 87.8122C96.2836 87.7497 97.7709 87.6581 99.2557 87.5873C102.898 87.4133 106.539 87.2436 110.183 87.1311C113.714 87.0218 117.237 86.8775 120.743 87.4212C125.302 88.1283 129.837 89.138 134.468 88.7001C138.158 88.3512 142.26 87.5529 145.216 85.0039C146.99 83.4735 148.934 79.8596 146.927 77.7189ZM145.024 83.0512C142.685 85.8048 138.619 86.6515 135.312 87.0473C130.844 87.5826 126.5 86.7973 122.094 86.0693C120.232 85.7616 118.363 85.4783 116.475 85.4663C114.944 85.4569 113.413 85.483 111.883 85.521C105.685 85.6746 99.4986 86.0844 93.304 86.2943C92.9724 86.3052 92.6403 86.3156 92.3087 86.3177C91.542 86.3224 91.3566 87.3472 91.9374 87.7732C94.0609 89.3302 96.496 90.4643 98.8206 91.6297C102.419 93.433 106.059 95.1421 109.698 96.8475C113.371 98.568 116.874 100.633 120.375 102.711C122.043 103.701 123.713 104.692 125.412 105.621C126.864 106.414 128.253 107.199 129.886 107.443C131.226 107.643 132.889 107.642 133.633 109.061C134.445 110.608 133.884 112.817 132.837 114.093C131.832 115.318 130.249 115.351 128.836 115.211C127.244 115.053 125.654 114.721 124.09 114.378C120.605 113.616 117.166 112.576 113.845 111.216C110.148 109.701 106.72 107.667 103.38 105.418C100.183 103.264 97.118 100.905 93.9393 98.7237C92.94 98.0373 91.9222 97.3505 90.8293 96.8433C90.1204 96.5142 89.2561 96.1653 88.4815 96.4496C88.0807 96.5965 87.8914 96.9714 87.9674 97.4104C88.1028 98.1915 88.665 98.9747 89.0594 99.6245C89.8732 100.967 90.7483 102.268 91.6259 103.564C94.2503 107.442 96.9605 111.254 99.63 115.097C102.344 119.004 105.033 122.934 107.624 126.936C109.493 129.823 111.72 132.933 112.492 136.41C112.592 136.857 112.654 137.308 112.633 137.768C112.623 138.008 112.539 138.39 112.465 138.54C112.231 139.014 111.956 139.168 111.401 139.316C110.162 139.648 108.495 139.139 107.196 138.629C105.466 137.95 104.221 136.924 102.81 135.877C99.7831 133.632 96.2428 131.938 93.7254 128.998C93.0435 128.202 92.5216 127.276 91.9702 126.378C91.3103 125.303 90.6583 124.223 90.0145 123.137C88.6836 120.896 87.3948 118.628 86.149 116.333C84.9791 114.172 83.9018 112.008 83.0841 109.666C82.2929 107.401 81.6586 105.08 80.9601 102.782C80.6224 101.662 80.2578 100.552 79.8667 99.4516C79.5959 98.695 78.346 98.7122 78.4215 99.6589C78.7674 103.971 79.6498 108.202 80.1875 112.487C80.7506 116.97 80.7119 121.501 80.6451 126.014C80.5789 130.531 80.6623 135.127 80.2316 139.623C79.8112 144.01 78.8714 148.318 78.4152 152.7C78.2498 154.288 78.2646 155.917 77.9835 157.489C77.7897 158.575 77.3144 160.338 75.9561 160.185C74.7126 160.044 73.858 158.253 73.3219 157.246C72.462 155.631 71.6678 153.969 71.0512 152.232C69.6831 148.375 69.0709 144.279 68.9517 140.171C68.8879 137.977 68.8418 135.81 68.5945 133.627C68.3458 131.427 68.0044 129.242 67.6934 127.052C67.3304 124.494 67.0189 121.924 66.9684 119.335C66.9248 117.118 67.0057 114.898 67.1322 112.684C67.4006 107.994 67.9073 103.324 68.2728 98.6419C68.3316 97.8853 67.2068 97.5557 66.9012 98.2477C64.0865 104.625 60.9627 110.86 57.2719 116.719C53.74 122.325 50.5765 128.183 46.9078 133.693C46.0037 135.051 45.0849 136.388 43.917 137.508C42.9972 138.391 41.6703 139.45 40.3444 139.149C39.1675 138.881 37.9186 137.891 37.6326 136.613C37.4757 135.907 37.5816 135.149 37.5826 134.431C37.5841 133.585 37.5679 132.737 37.6243 131.893C37.7514 129.993 38.6667 128.491 39.5394 126.874C40.4295 125.227 41.3574 123.603 42.3222 122.004C44.1539 118.965 46.1082 116.012 48.0851 113.078C49.954 110.302 52.1742 107.922 54.4361 105.51C57.0953 102.672 59.6535 99.7438 61.8001 96.4423C62.2038 95.8216 61.3812 94.903 60.793 95.3738C58.0254 97.59 55.2401 99.7813 52.4627 101.984C51.1524 103.024 49.8677 104.115 48.5094 105.085C47.1683 106.044 45.7575 106.885 44.3452 107.718C42.8932 108.574 41.4333 109.42 40.0363 110.376C38.6677 111.311 37.4021 112.4 36.0212 113.318C33.2006 115.192 30.0872 116.635 27.009 117.963C25.4933 118.616 23.8078 119.211 22.1566 118.861C21.9886 118.825 21.8226 118.78 21.6592 118.726C21.6916 118.736 21.8726 118.989 21.7357 118.861C19.1128 116.422 21.0279 112.286 22.0276 110.462C23.5816 107.624 25.9529 105.311 28.3296 103.26C31.056 100.907 33.9953 98.8372 36.9533 96.8298C40.2202 94.6114 43.4833 92.403 47.0162 90.6856C49.8932 89.2875 52.9061 88.1929 55.7203 86.651C56.3438 86.3094 56.0809 85.1148 55.349 85.1955C50.7296 85.7012 46.1739 84.9216 41.6001 84.3181C37.02 83.7141 32.3976 83.6146 27.8081 83.0647C23.6155 82.5627 19.3831 81.854 15.1571 81.83C12.2963 81.8134 9.43445 82.0008 6.57559 81.8358C5.37229 81.7665 4.12534 81.6639 2.97797 81.2437C2.23333 80.9708 1.71237 80.6095 1.72856 79.8664C1.79527 76.7368 5.06423 75.5734 7.45022 74.9746C11.3412 73.9987 15.4774 73.6551 19.4665 73.6134C23.5821 73.5707 27.686 73.943 31.7996 73.9852C37.56 74.0435 43.3239 74.0769 49.0838 73.9654C51.2407 73.9238 53.4202 73.9128 55.5668 73.6696C56.0451 73.6155 56.6788 73.6035 57.0997 73.3109C57.8767 72.7714 57.3636 71.7122 56.8912 71.1524C56.1186 70.2359 54.988 69.6251 53.9706 69.0799C52.3641 68.2191 50.6923 67.4938 49.022 66.7866C44.823 65.0088 40.5808 63.3289 36.3484 61.6438C32.1185 59.9593 27.8277 58.4512 23.6096 56.7318C21.8848 56.0288 19.9708 55.3872 18.4285 54.2843C17.6054 53.6959 16.898 52.9346 16.2309 52.1597C15.5427 51.3583 14.8466 50.5434 14.3315 49.6019C13.3946 47.8908 12.9987 45.8766 14.6023 44.4914C15.8738 43.3937 17.6691 42.9313 19.2801 42.9224C21.151 42.9115 23.0842 43.5406 24.8384 44.1769C26.883 44.9179 28.8422 45.8922 30.7582 46.9467C34.5629 49.04 38.2753 51.3141 42.0848 53.4012C46.221 55.6663 50.2954 58.0628 54.2708 60.631C56.1387 61.836 57.9805 63.0861 59.7948 64.3803C60.428 64.8328 61.1457 63.9595 60.8018 63.3112C58.6979 59.35 56.8074 55.2643 54.6416 51.3396C52.5156 47.4877 50.0943 44.0014 47.0559 40.9041C44.1161 37.9067 40.8643 35.1302 38.5254 31.545C37.4855 29.9499 36.5216 28.2602 35.7818 26.4834C35.3364 25.4133 34.9352 24.2318 34.8979 23.0502C34.8851 22.6378 34.9082 22.303 35.0132 21.9171C35.0784 21.6771 35.2486 21.3375 35.357 21.1985C35.7441 20.6997 36.2165 20.4747 36.8252 20.3169C38.2257 19.9534 39.8872 20.2461 41.3146 20.6861C42.0367 20.9085 42.7107 21.1704 43.3675 21.5193C44.252 21.9895 44.7337 22.4462 45.4886 23.0586C48.5947 25.5789 52.0854 27.866 54.5195 31.1768C55.9102 33.0686 57.0237 35.2521 58.1563 37.3225C59.3837 39.5668 60.56 41.8409 61.7402 44.1128C62.8489 46.2458 63.9182 48.3802 64.8321 50.6168C65.7455 52.8533 66.5505 55.1373 67.3545 57.4197C67.7405 58.5174 68.1266 59.6151 68.5215 60.7091C68.7937 61.4642 70.0412 61.4501 69.9666 60.5013C69.6311 56.2454 69.0017 52.0238 68.6142 47.7736C68.2237 43.488 68.1776 39.1612 68.029 34.8594C67.8779 30.4998 67.9338 26.158 67.9824 21.7974C68.0314 17.4336 68.0304 13.0647 68.3252 8.7103C68.4292 7.17205 68.8202 5.72546 69.5418 4.37936C70.1138 3.31186 71.0649 1.87828 72.3678 1.9038C73.7432 1.9314 75.0015 3.15252 75.8683 4.16742C76.9376 5.41875 77.6293 6.92939 78.086 8.53898C79.122 12.1857 78.9278 16.0703 78.8071 19.829C78.6756 23.9381 78.888 27.955 79.3388 32.037C79.592 34.3319 79.8598 36.6278 79.9559 38.9373C80.0496 41.1816 79.9265 43.426 79.771 45.6641C79.4546 50.2351 78.9302 54.7873 78.5608 59.3531C78.5069 59.5052 78.4971 59.6531 78.5231 59.7885C78.5211 59.8135 78.5182 59.8385 78.5167 59.8634C78.4382 60.8653 79.9103 60.8596 79.9883 59.8634L80.4229 58.7803C81.7548 55.7382 83.0091 52.844 84.9786 50.157C86.8304 47.6314 88.8249 45.2257 90.6168 42.6501C92.6261 39.7616 94.7992 37.0168 96.9576 34.2533C98.179 32.689 99.3906 31.1159 100.568 29.5136C101.638 28.0581 102.764 26.6053 103.691 25.0405C104.366 23.9022 104.958 22.7102 105.628 21.5677C106.241 20.521 106.931 19.2879 107.934 18.6089C108.858 17.984 109.658 18.8276 110.266 19.5671C111.17 20.6663 111.97 22.2041 112.113 23.6772C112.282 25.4185 111.126 27.1234 110.318 28.5341C109.366 30.1973 108.531 31.9329 107.639 33.6331C105.79 37.1569 103.844 40.6234 101.737 43.9806C100.639 45.7302 99.5329 47.4934 98.2727 49.1176C97.1602 50.5512 95.9603 51.9056 94.7614 53.2574C91.904 56.4782 89.0986 59.7322 86.7278 63.3831C86.3251 64.0033 87.1478 64.9245 87.7349 64.4516C90.737 62.0354 93.5488 59.3724 96.4793 56.863C97.8366 55.7002 99.1944 54.5921 100.751 53.7438C102.198 52.9565 103.714 52.3295 105.21 51.6583C106.691 50.9943 108.169 50.296 109.519 49.3603C110.802 48.4714 111.919 47.3607 113.017 46.2348C114.15 45.0746 115.281 43.8832 116.641 43.0229C117.976 42.1783 119.519 41.5623 120.963 40.9588C122.452 40.3365 124.061 39.7559 125.683 39.8611C126.032 39.8834 126.49 39.9142 126.816 40.0787C127.083 40.2136 127.196 40.4594 127.347 40.7374C127.611 41.2243 127.912 41.7216 128.138 42.2288C129.1 44.3899 128.11 47.0425 127.103 48.9682C123.809 55.2685 117.947 59.0839 112.208 62.5088C108.656 64.6292 105.213 66.9579 101.614 68.9846C98.4527 70.7645 95.1901 72.3241 92.0154 74.0732C91.3934 74.4159 91.6538 75.6094 92.3867 75.5292C97.3745 74.9782 102.358 75.5995 107.342 75.8786C112.446 76.165 117.572 75.8562 122.682 75.9666C126.857 76.0567 131.023 76.3285 135.192 76.5582C138.186 76.7227 141.37 76.8102 144.231 77.8579C144.948 78.1203 146.036 78.5656 146.235 79.4352C146.511 80.6433 145.77 82.1732 145.024 83.0512ZM83.6095 80.9162C83.6659 80.5725 83.7145 80.2267 83.7468 79.8789C83.8234 79.0676 83.8253 78.2432 83.7674 77.422C83.9764 77.1034 83.9367 76.6024 83.6477 76.3337C83.4682 75.1183 83.1376 73.9305 82.6323 72.8307C82.8889 72.4152 82.8236 71.7945 82.2433 71.6914C82.1639 71.6773 82.0844 71.6679 82.0049 71.6549C80.7384 69.5965 78.6879 67.8249 76.2749 67.9072C76.1032 67.9129 75.963 67.9702 75.8531 68.0587C75.2394 68.128 74.6213 68.1978 74.0101 68.3024C73.7859 68.2452 73.5387 68.2873 73.3538 68.4295C72.7705 68.5597 72.1981 68.7347 71.6477 68.9883C70.0828 69.7095 68.5293 70.6114 67.2706 71.8413C65.7499 73.327 64.6275 75.2709 64.0409 77.3715C64.0016 77.5137 63.9639 77.6574 63.928 77.8022C63.4742 77.9696 63.0251 78.1514 62.5815 78.3474C62.2121 78.5114 61.9571 78.8629 62.0674 79.3081C62.1592 79.6763 62.6065 80.0163 62.9725 79.8539C63.1883 79.7575 63.4071 79.6747 63.6244 79.5862C63.4596 81.2817 63.6528 83.0387 64.4465 84.5004C64.992 85.5054 65.8725 86.2917 66.6913 87.0384C67.0243 87.342 67.3756 87.6222 67.7366 87.8872C67.7415 88.3236 67.7449 88.7594 67.7533 89.1958C67.7719 90.1998 69.2435 90.2034 69.2249 89.1958C69.2224 89.0656 69.2219 88.9344 69.22 88.8037C69.2931 88.8407 69.3632 88.8834 69.4373 88.9188C71.4779 89.8926 73.7295 90.2055 75.9281 89.729C76.9799 89.4994 77.9893 89.089 78.9165 88.5142C79.281 88.5725 79.6729 88.3824 79.7313 87.9419C80.3001 87.5058 80.8181 86.9996 81.2745 86.4338C82.2036 85.2684 82.854 83.9135 83.2646 82.4726C83.3676 82.4471 83.4721 82.4258 83.5756 82.4002C84.3374 82.2091 84.2011 81.1474 83.6095 80.9162ZM69.7713 72.9771C70.8824 72.8542 71.9974 72.7651 73.1144 72.7115C73.1296 73.8259 73.1477 74.9397 73.1708 76.0536C71.9414 76.1169 70.7152 76.2373 69.4957 76.4144C69.5707 75.2673 69.6644 74.1216 69.7713 72.9771ZM76.2779 69.573C76.3907 69.5595 76.4888 69.5241 76.5751 69.4741C76.9416 69.4928 77.2962 69.5652 77.6362 69.6855C77.6277 69.7381 77.624 69.7915 77.6249 69.8449C77.6357 70.2859 77.6479 70.727 77.6592 71.1686C76.6291 71.1108 75.597 71.0925 74.5654 71.1082C74.5615 70.6655 74.5575 70.2229 74.5556 69.7808C75.132 69.6959 75.7123 69.6386 76.2774 69.5725L76.2779 69.573ZM77.699 72.7256C77.7269 73.8113 77.7583 74.897 77.7912 75.9833C76.7403 75.9652 75.6892 75.9692 74.6385 75.9952C74.6153 74.8848 74.5958 73.7742 74.5801 72.6636C75.6206 72.6459 76.6605 72.6657 77.699 72.7256ZM81.0935 73.0812C81.585 74.031 81.9191 75.0537 82.1153 76.1108C81.1686 76.0759 80.2174 76.0411 79.2638 76.015C79.2319 74.9564 79.201 73.8977 79.1735 72.8391C79.8147 72.9016 80.4548 72.9838 81.093 73.0812H81.0935ZM73.2027 77.6168C73.21 77.9464 73.2154 78.276 73.2228 78.6057C73.2522 79.92 73.2802 81.2338 73.3047 82.5487C71.9479 82.6622 70.5881 82.732 69.2264 82.746C69.2578 81.1666 69.3151 79.5883 69.3995 78.0115C70.6606 77.8157 71.9298 77.6843 73.2027 77.6168ZM74.7675 81.9701C74.7381 80.4991 74.7047 79.028 74.6723 77.5569C75.727 77.5283 76.7831 77.5272 77.8393 77.5444C77.8868 79.0181 77.9408 80.4918 77.9997 81.9649C76.9278 82.142 75.8526 82.2898 74.7744 82.4075L74.767 81.9701H74.7675ZM79.3119 77.5772C80.3135 77.6059 81.3123 77.6433 82.3061 77.6798C82.3272 78.0193 82.34 78.3594 82.336 78.7004C82.3263 79.5267 82.2342 80.3495 82.0613 81.1552C81.198 81.3562 80.3312 81.5405 79.4615 81.7051C79.4066 80.3293 79.3568 78.9534 79.3119 77.5772ZM79.9481 71.367C79.6768 71.3357 79.4051 71.3008 79.1338 71.2758C79.1274 71.0326 79.1206 70.79 79.1147 70.5468C79.4138 70.7949 79.6928 71.0692 79.9486 71.367H79.9481ZM72.1201 70.4661C72.4331 70.314 72.7571 70.1887 73.0889 70.0912C73.0908 70.4458 73.0957 70.7999 73.0987 71.1545C72.2265 71.1946 71.3548 71.2592 70.4836 71.344C71.0184 71.0294 71.5643 70.7365 72.1201 70.4661ZM67.7886 73.4942C67.9529 73.3093 68.1246 73.1348 68.3002 72.9667C68.1847 74.1991 68.0875 75.4334 68.0088 76.6691C67.2093 76.8263 66.4165 77.018 65.6312 77.246C66.0983 75.8506 66.8329 74.5731 67.7886 73.4942ZM67.9127 78.2807C67.8362 79.7653 67.7852 81.2515 67.7547 82.7382C66.9355 82.7241 66.1158 82.6929 65.2962 82.6398C64.9695 81.4827 64.9886 80.1882 65.1863 79.0103C66.0827 78.7178 66.9927 78.4739 67.9127 78.2807ZM66.2331 84.4483C66.1752 84.3806 66.1232 84.3098 66.0702 84.24C66.6245 84.2671 67.1788 84.291 67.7332 84.3009C67.7278 84.8425 67.7258 85.3851 67.7258 85.9272C67.1917 85.4774 66.6926 84.9829 66.2331 84.4483ZM69.1974 86.9848C69.1926 86.0922 69.195 85.1997 69.2048 84.3072C70.5822 84.2947 71.9582 84.2259 73.3312 84.1124C73.3395 84.6488 73.3484 85.1862 73.3538 85.723C73.3595 86.2837 73.3634 86.8443 73.3655 87.405C73.3655 87.4571 73.3518 87.5591 73.3464 87.6576C73.1789 87.84 73.0796 88.0807 73.0668 88.335C71.708 88.1924 70.3988 87.7133 69.1974 86.9848ZM74.8205 88.3246C74.9024 87.8726 74.8372 87.3404 74.8352 86.8874C74.8317 86.3267 74.8264 85.7661 74.8195 85.2054C74.8146 84.7956 74.8063 84.3863 74.7999 83.9765C75.8906 83.8575 76.9783 83.7092 78.062 83.5318C78.1144 84.7253 78.1728 85.9188 78.2346 87.1118C77.6985 87.4631 77.1243 87.7443 76.5246 87.9492C75.9556 88.1419 75.3866 88.2606 74.8205 88.3246ZM79.6498 85.9339C79.6062 85.0492 79.5601 84.165 79.5223 83.2798C80.2002 83.1537 80.8767 83.0194 81.5512 82.872C81.1048 84.0229 80.4705 85.0685 79.6498 85.9339Z" fill="black"/>
</svg>
