<svg width="55" height="65" viewBox="0 0 55 65" fill="none" xmlns="http://www.w3.org/2000/svg">
<path d="M14.6154 47.3751C24.8895 51.2894 35.7382 54.7289 45.4755 59.9611C47.0373 60.8003 48.883 62.0124 50.6734 62.3286C53.1694 62.7693 51.621 46.3656 51.5592 44.0918C51.506 42.1305 52.9899 17.3936 49.0456 20.4753C46.8176 22.216 37.1841 29.9779 35.3155 27.5863C29.2449 19.8163 24.0139 11.5781 17.9359 3.79859C16.067 1.40651 8.07072 7.88999 5.70278 9.74003C3.81435 11.2154 1.43757 11.9948 3.25989 14.3272C7.2667 19.4557 11.2735 24.5842 15.2803 29.7127C15.8921 30.4957 25.4062 40.6105 24.3405 41.652C22.4092 43.5394 15.2204 45.9525 12.6974 46.4629" stroke="#1C1C1C" stroke-width="5" stroke-linecap="round"/>
</svg>
