<svg width="119" height="155" viewBox="0 0 119 155" fill="none" xmlns="http://www.w3.org/2000/svg">
<g clip-path="url(#clip0_196_566)">
<path d="M106.222 87.1236C104.754 88.3333 98.3327 95.6982 95.9475 98.0068C93.5624 100.316 93.1038 101.195 93.1953 103.503C93.2872 105.812 97.0485 119.663 98.2413 126.039C99.4336 132.415 100.076 145.386 100.076 145.386L76.5915 126.918C76.5915 126.918 64.8069 116.436 62.6472 116.475C59.8715 116.525 52.905 124.733 52.0976 125.929C48.4732 131.295 35.402 146.046 34.3929 147.145C33.3835 148.245 26.5956 153.96 26.5956 153.96C26.5956 153.96 25.8641 141.19 26.687 138.351C27.5099 135.511 28.193 123.701 30.9069 116.585C33.6207 109.469 31.5558 109.488 31.3654 107.901C31.1755 106.313 23.8433 102.844 18.5225 99.5458C13.2017 96.2477 2.03975 90.3667 1.49023 88.0153C8.46238 83.8867 29.9893 81.8837 36.606 77.3972C43.2228 72.9107 56.5622 31.3527 56.5622 31.3527C56.5622 31.3527 73.8983 72.0966 80.0162 73.9687C89.4804 76.2954 97.7991 76.3797 102.966 77.2303C111.857 78.6934 113.997 79.2868 113.997 79.2868C113.912 79.8115 107.69 85.9145 106.222 87.1236ZM106.222 87.1236C104.754 88.3333 98.3327 95.6982 95.9475 98.0068C93.5624 100.316 93.1038 101.195 93.1953 103.503C93.2872 105.812 97.0485 119.663 98.2413 126.039C99.4336 132.415 100.076 145.386 100.076 145.386L76.5915 126.918C76.5915 126.918 64.8069 116.436 62.6472 116.475C59.8715 116.525 52.905 124.733 52.0976 125.929C48.4732 131.295 35.402 146.046 34.3929 147.145C33.3835 148.245 26.5956 153.96 26.5956 153.96C26.5956 153.96 25.8641 141.19 26.687 138.351C27.5099 135.511 28.193 123.701 30.9069 116.585C33.6207 109.469 31.5558 109.488 31.3654 107.901C31.1755 106.313 23.8433 102.844 18.5225 99.5458C13.2017 96.2477 2.03975 90.3667 1.49023 88.0153C8.46238 83.8867 29.9893 81.8837 36.606 77.3972C43.2228 72.9107 56.5622 31.3527 56.5622 31.3527C56.5622 31.3527 73.8983 72.0966 80.0162 73.9687C89.4804 76.2954 97.7991 76.3797 102.966 77.2303C111.857 78.6934 113.997 79.2868 113.997 79.2868C113.912 79.8115 107.69 85.9145 106.222 87.1236Z" fill="#31AD54"/>
<path d="M106.681 27.4326C114.02 27.3769 117.919 30.0705 117.919 30.0705L111.314 36.4465V49.8025L101.891 44.471L93.6546 52.2764L92.8749 51.7263L94.9848 37.8753L86.4072 32.3786C86.4072 32.3786 91.2694 30.5099 91.5906 30.6824C91.9118 30.8549 97.1866 29.2457 97.1866 29.2457L98.4244 27.1573L101.636 17.2084C102.461 17.9781 105.397 24.5744 106.681 27.432L106.681 27.4326ZM106.681 27.4326C114.02 27.3769 117.919 30.0705 117.919 30.0705L111.314 36.4465V49.8025L101.891 44.471L93.6546 52.2764L92.8749 51.7263L94.9848 37.8753L86.4072 32.3786C86.4072 32.3786 91.2694 30.5099 91.5906 30.6824C91.9118 30.8549 97.1866 29.2457 97.1866 29.2457L98.4244 27.1573L101.636 17.2084C102.461 17.9781 105.397 24.5744 106.681 27.432L106.681 27.4326Z" fill="#FFD200"/>
<path d="M114.76 78.3046C109.721 76.9134 105.351 75.8897 100.213 75.6459C95.0087 75.3992 89.114 75.3194 84.015 74.1244C82.8475 73.8507 81.6603 73.6451 80.5032 73.3164C79.361 72.9916 78.4392 72.3028 77.5882 71.3443C75.9143 69.4587 74.9405 66.8674 73.7617 64.5457C71.113 59.3289 68.2384 54.2817 65.608 49.0507C62.6564 43.1815 60.0917 37.0527 57.2757 31.092C57.0679 30.6531 56.6952 30.6043 56.3998 30.7706C56.0763 30.7031 55.7059 30.856 55.5591 31.3223C53.6649 37.3354 51.8545 43.3933 49.7104 49.2878C47.6159 55.0458 45.0137 60.4773 42.4682 65.9583C41.3119 68.4484 40.3123 71.1162 38.9666 73.4704C37.6294 75.8077 35.6175 77.2579 33.395 78.117C30.9278 79.071 28.3077 79.5441 25.7678 80.1363C23.1384 80.7498 20.5047 81.3415 17.8795 81.9848C14.9584 82.6995 12.0796 83.5574 9.21334 84.5379C6.38885 85.5037 3.57092 86.496 0.699546 87.2455C0.186129 87.3792 0.0149908 88.2338 0.389152 88.6541C3.68814 92.359 7.06075 94.4132 11.1873 96.5027C15.8882 98.8828 19.9524 101.629 24.4391 104.558C25.4106 105.191 27.6068 105.841 28.5755 106.48C29.4119 107.033 30.2817 107.592 30.9597 108.412C32.6176 110.414 31.1177 112.898 30.4252 115.018C29.5062 117.827 28.8183 120.781 28.1933 123.701C27.5512 126.704 27.0237 129.742 26.6123 132.803C25.6703 139.794 25.5817 146.828 25.8912 153.887C25.9179 154.495 26.4768 154.977 26.9494 154.615C37.1732 146.777 45.2805 135.947 54.024 126.049C56.1912 123.595 58.0244 120.698 60.396 118.531C61.3155 117.689 62.4037 116.574 63.5904 117.464C64.8236 118.389 65.9587 119.545 67.1647 120.527C69.637 122.542 72.1825 124.425 74.6573 126.435C77.222 128.518 79.7398 130.683 82.3079 132.76C88.0708 137.422 93.9092 141.943 99.8381 146.295C100.295 146.63 100.898 146.197 100.896 145.567C100.873 135.14 99.3242 124.652 96.9179 114.65C96.3343 112.208 95.666 109.796 94.9149 107.421C94.5351 106.227 93.9992 105.033 93.7531 103.788C93.558 102.802 93.5242 101.496 94.1891 100.758C94.8329 100.044 95.6206 99.4829 96.2939 98.7991C97.091 97.9889 97.8702 97.1528 98.6406 96.3055C100.209 94.5806 101.745 92.8119 103.341 91.1235C107.113 87.1331 111.173 83.5237 115.07 79.7132C115.48 79.3126 115.244 78.4378 114.76 78.3046ZM98.5998 94.0564C97.0891 95.7403 95.5817 97.4866 93.8937 98.9143C93.2232 99.4817 92.6343 100.113 92.4046 101.093C92.1336 102.253 92.1973 103.575 92.5096 104.713C92.8495 105.949 93.3329 107.14 93.7132 108.361C94.0972 109.591 94.4564 110.833 94.7935 112.084C96.1495 117.112 97.1613 122.274 97.9771 127.465C98.8375 132.939 99.3744 138.47 99.4696 144.038C94.4972 140.361 89.582 136.575 84.7263 132.68C82.0641 130.549 79.4234 128.379 76.8047 126.171C74.3004 124.058 71.6996 122.119 69.1461 120.093C67.8708 119.082 66.6072 118.047 65.3773 116.956C64.8784 116.513 64.3983 116 63.8183 115.714C63.2514 115.435 62.6264 115.424 62.0272 115.533C60.7125 115.772 59.6149 117.124 58.6091 118.075C57.4297 119.192 56.2762 120.347 55.1498 121.54C50.4461 126.512 46.1816 132.059 41.7438 137.362C39.2737 140.313 36.8122 143.284 34.178 146.027C31.9805 148.314 29.6629 150.429 27.2396 152.361C27.0226 146.42 27.0708 140.455 27.799 134.562C28.5567 128.432 29.7687 122.376 31.4647 116.521C32.1426 114.181 33.7589 111.545 32.9332 108.983C32.2336 106.812 30.3187 105.716 28.726 104.657C24.2037 101.647 19.605 98.9289 14.8347 96.5247C10.4601 94.3205 6.0386 92.1635 2.37717 88.5069C7.13624 87.1483 11.7781 85.2509 16.5676 84.0305C19.3012 83.3344 22.0459 82.7102 24.7893 82.0758C27.4324 81.4645 30.1157 80.9313 32.7198 80.1093C34.9676 79.4002 37.2327 78.2271 38.893 76.2229C40.5458 74.2261 41.5107 71.5617 42.6182 69.1244C45.1642 63.5187 47.9254 58.0422 50.146 52.2326C52.5475 45.9487 54.5126 39.4429 56.5381 32.9753C58.8919 38.0208 61.0974 43.1652 63.5304 48.1579C66.1646 53.5642 69.111 58.74 71.8623 64.0603C72.5103 65.3101 73.1436 66.5706 73.7622 67.8416C74.3581 69.0693 74.9344 70.2857 75.6939 71.3842C76.3738 72.368 77.1826 73.2512 78.081 73.9423C79.0515 74.6885 80.1604 74.9756 81.2796 75.2121C86.4105 76.2982 91.7041 77.1247 96.9104 77.6248C102.34 78.1462 107.604 78.3984 112.974 79.584C109.784 82.663 106.538 85.6633 103.41 88.83C101.755 90.5038 100.185 92.291 98.5998 94.0564ZM56.0472 89.0575C56.0472 86.859 56.0378 84.6604 56.0378 82.4613C56.0378 81.3769 54.6312 81.3752 54.6312 82.4613C54.6312 84.6604 54.6406 86.859 54.6406 89.0575C54.6406 90.1419 56.0472 90.1442 56.0472 89.0575ZM63.063 88.5811C63.4442 88.5608 63.7663 88.2108 63.7663 87.7383C63.7663 85.9796 63.7555 84.221 63.755 82.4618C63.755 82.0208 63.4315 81.5982 63.0517 81.619C62.671 81.6393 62.3484 81.9893 62.3484 82.4618C62.3484 84.2205 62.3596 85.9791 62.3596 87.7383C62.3596 88.1793 62.6832 88.6013 63.063 88.5811ZM72.3574 84.4637C70.4908 90.9768 65.9292 96.2482 60.4926 98.4277C58.9498 99.0503 57.3423 99.4128 55.7162 99.5048C54.815 99.5536 54.8099 101.24 55.7162 101.19C61.9855 100.848 67.8389 96.696 71.3709 90.5279C72.3635 88.794 73.1442 86.9 73.7139 84.9121C74.0083 83.8839 72.6505 83.4423 72.3574 84.4637ZM118.335 29.1333C116.42 28.2669 114.475 27.4792 112.463 27.0072C110.67 26.5864 108.852 26.4307 107.029 26.4397C105.992 22.7528 104.271 19.4255 102.118 16.5218C101.747 16.0223 101.097 16.3274 100.942 16.8937C100.306 19.2086 99.6008 21.4954 98.9444 23.8029C98.6748 24.7525 98.4493 25.7267 98.1487 26.6628C97.8909 27.4663 97.5158 28.2888 96.8181 28.6361C96.0669 29.0108 95.1958 28.9271 94.401 28.994C93.5022 29.0693 92.6038 29.2243 91.7219 29.4457C89.8867 29.907 88.1275 30.7093 86.448 31.6988C85.9805 31.9746 84.581 32.6933 85.0306 32.9753C87.691 34.6424 91.7472 36.537 94.4053 38.2091C93.9528 40.8481 93.5191 43.4922 93.0816 46.1347C92.8439 47.5674 92.6048 49.0007 92.3582 50.4318C92.2672 50.9605 92.0515 51.5375 92.1284 52.0803C92.2025 52.6068 92.5363 53.0523 92.9639 53.204C93.7807 53.4934 94.583 52.8652 95.1756 52.2595C96.0482 51.3673 96.9245 50.4824 97.8093 49.6075C98.7222 48.7052 99.6365 47.804 100.533 46.8786C100.902 46.4976 101.293 45.938 101.754 45.7206C102.291 45.4666 102.863 45.915 103.317 46.215C105.692 47.7849 108.066 49.3598 110.443 50.929C110.807 51.1701 111.542 51.4909 111.817 50.2526C112.794 45.8588 112.491 41.4122 112.189 36.8713C114.42 34.984 116.224 32.4865 118.503 30.6739C119.033 30.2525 118.904 29.3912 118.335 29.1333ZM111.107 35.7329C110.912 35.8886 110.737 36.1605 110.759 36.4611C111.073 40.6211 110.824 44.7778 110.27 48.8895C108.586 47.7764 106.904 46.6617 105.221 45.5486C104.311 44.9475 103.353 44.1002 102.291 43.9811C101.286 43.8687 100.585 44.594 99.8742 45.3385C98.2031 47.0887 96.4594 48.7355 94.77 50.4604C94.4479 50.7897 94.1361 51.1886 93.7577 51.428C93.7132 51.4498 93.6683 51.4708 93.6232 51.4909C93.6424 51.3673 93.6522 51.2347 93.6687 51.1482C93.9195 49.8126 94.1258 48.4625 94.3485 47.1207C94.8549 44.0743 95.3496 41.0245 95.8761 37.9832C95.9371 37.6292 95.8386 37.2106 95.5526 37.0314C93.1581 35.5312 90.7795 33.994 88.3901 32.4814C89.7779 31.7791 91.2202 31.2431 92.7093 30.929C93.6504 30.7301 94.5895 30.684 95.5399 30.6099C96.4003 30.5425 97.2748 30.3767 97.9921 29.7637C99.3786 28.5799 99.7162 26.3201 100.229 24.5069C100.768 22.5977 101.343 20.7026 101.888 18.7951C103.552 21.256 104.885 24.026 105.717 27.0409C105.602 27.5314 105.816 28.1405 106.364 28.1253C108.346 28.0714 110.323 28.2006 112.268 28.6754C113.77 29.0412 115.234 29.5828 116.677 30.1958C114.775 31.9786 113.128 34.126 111.107 35.7329ZM69.1255 10.334C70.9879 9.95248 72.5989 10.0581 74.481 9.91146C74.5246 12.9674 74.9039 15.6627 75.0835 18.7125C75.1468 19.7884 76.5538 19.7969 76.4901 18.7125C76.3086 15.6335 76.4962 12.9966 76.4535 9.91146C77.9595 9.8373 79.1659 9.37938 80.6734 9.43051C81.5788 9.46141 81.5783 7.77583 80.6734 7.74492C79.1589 7.69379 77.9192 7.35162 76.4085 7.42803C76.3972 5.20531 76.1511 3.33544 76.2233 1.11271C76.2585 0.0283188 74.8518 0.0300043 74.8167 1.11271C74.7435 3.36578 74.3773 5.3469 74.3895 7.59996C72.3884 7.75616 70.7328 8.30229 68.7518 8.70852C67.8609 8.89112 68.2389 10.5155 69.1255 10.334Z" fill="black"/>
</g>
<defs>
<clipPath id="clip0_196_566">
<rect width="119" height="155" fill="white"/>
</clipPath>
</defs>
</svg>
