<svg width="146" height="119" viewBox="0 0 146 119" fill="none" xmlns="http://www.w3.org/2000/svg">
<g clip-path="url(#clip0_196_593)">
<path d="M144.131 38.5209C142.964 39.5246 141.688 40.4365 140.417 41.3418C137.076 43.7208 133.733 46.0916 130.411 48.4909C126.993 50.9601 123.382 53.1358 119.66 55.2532C116.077 57.2913 112.649 59.5052 109.281 61.7929C108.103 62.5933 106.929 63.4003 105.802 64.2532C105.271 64.655 104.399 65.1821 104.188 65.7991C104.081 66.113 104.22 66.4817 104.281 66.7975C104.374 67.2798 104.47 67.7615 104.565 68.2437C104.831 69.6067 105.089 70.9706 105.33 72.3378C106.685 80.0376 107.538 87.8089 108.361 95.5616C108.81 99.7933 109.146 104.024 109.238 108.274C109.276 110.051 109.291 111.835 109.133 113.608C109.08 114.21 109.009 114.812 108.856 115.401C108.815 115.564 108.765 115.724 108.708 115.883C108.166 115.605 107.57 115.202 107.11 114.88C105.96 114.074 104.872 113.204 103.808 112.317C101.162 110.115 98.656 107.803 96.3444 105.343C93.9249 102.767 91.5691 100.158 88.9492 97.7264C86.3215 95.2874 83.5621 92.9411 81.2052 90.3008C78.7746 87.5786 76.6868 84.6456 74.2064 81.9556C73.8836 81.6058 73.0974 81.714 72.8809 82.1012C71.2952 84.9364 69.8064 87.8107 67.9113 90.5102C65.7332 93.612 62.9411 96.3034 60.1013 98.9697C57.1448 101.746 54.2824 104.589 51.2046 107.27C48.3787 109.733 45.5329 112.201 42.5376 114.513C41.3544 115.427 40.1458 116.33 38.8497 117.126C38.1388 117.562 37.3675 118.029 36.5835 118.222C36.5531 118.229 36.516 118.225 36.4795 118.22C36.4346 118.16 36.3792 118.149 36.3687 118.135C36.2721 118.007 36.1903 117.872 36.1246 117.731C35.6982 116.828 35.5704 115.804 35.4823 114.843C35.1933 111.691 35.4092 108.361 36.2037 105.273C37.099 101.794 38.4715 98.4393 39.1935 94.9239C40.0434 90.782 41.0671 86.6719 41.9729 82.54C42.7347 79.0614 42.8859 75.4429 43.9827 72.0234C44.0939 71.6764 43.0304 70.5943 42.5786 70.5286C37.0115 69.7201 32.182 69.7216 26.6863 68.5997C23.7436 67.9984 20.8563 67.223 17.9452 66.5243C15.1342 65.8492 12.279 65.3277 9.43928 64.7477C7.15876 64.282 4.85775 63.8258 2.63592 63.1791C2.0889 63.0197 1.53967 62.8486 1.03418 62.6056C1.34423 62.4316 1.75172 62.2416 2.09056 62.0917C2.90998 61.7286 3.74988 61.4001 4.59033 61.0743C7.07128 60.1142 9.57438 59.1961 12.0526 58.2302C17.3046 56.1836 22.1153 53.3854 27.4747 51.5345C30.1794 50.6003 32.9587 49.8392 35.6949 48.9774C38.3935 48.1273 41.0006 47.1005 43.5707 45.9995C45.5932 45.1334 47.5992 44.2233 49.5198 43.2007C50.4743 42.6925 51.6137 42.1588 52.2565 41.3423C53.0981 40.272 54.5409 38.2755 55.1062 37.0903C56.1432 34.9147 56.6022 33.4529 57.6005 31.2645C58.6186 29.0331 59.4026 26.813 60.5182 24.6175C61.7024 22.2818 62.7664 19.9029 63.7073 17.4878C64.6596 15.0503 65.5748 12.6061 66.6843 10.2168C67.7989 7.81518 68.9101 5.41167 70.0932 3.03464C70.3939 2.42998 70.7034 1.8291 71.019 1.23059C72.9441 3.1342 74.7345 5.13422 76.3806 7.21998C78.191 9.51569 79.6356 11.9097 80.8946 14.457C82.1752 17.0477 83.6036 19.5864 84.8366 22.1941C86.0768 24.8161 87.1476 27.5042 88.5318 30.075C89.9076 32.6298 91.6289 35.0452 92.9621 37.6165C92.9804 37.7924 93.0706 37.9725 93.2185 38.1124C93.2246 38.1257 93.2323 38.1384 93.2384 38.1517C93.5557 38.797 102.062 38.1115 105.649 37.9559C109.613 37.7843 113.568 37.4558 117.535 37.2908C121.398 37.13 125.239 36.887 129.095 36.6417C132.632 36.4166 136.173 36.4568 139.706 36.7135C141.08 36.8138 142.454 36.9447 143.81 37.1641C144.28 37.2397 144.749 37.3243 145.209 37.4368L145.226 37.4416C145.21 37.4628 145.196 37.4851 145.179 37.5063C144.879 37.8756 144.501 38.2027 144.131 38.5209ZM144.131 38.5209C142.964 39.5246 141.688 40.4365 140.417 41.3418C137.076 43.7208 133.733 46.0916 130.411 48.4909C126.993 50.9601 123.382 53.1358 119.66 55.2532C116.077 57.2913 112.649 59.5052 109.281 61.7929C108.103 62.5933 106.929 63.4003 105.802 64.2532C105.271 64.655 104.399 65.1821 104.188 65.7991C104.081 66.113 104.22 66.4817 104.281 66.7975C104.374 67.2798 104.47 67.7615 104.565 68.2437C104.831 69.6067 105.089 70.9706 105.33 72.3378C106.685 80.0376 107.538 87.8089 108.361 95.5616C108.81 99.7933 109.146 104.024 109.238 108.274C109.276 110.051 109.291 111.835 109.133 113.608C109.08 114.21 109.009 114.812 108.856 115.401C108.815 115.564 108.765 115.724 108.708 115.883C108.166 115.605 107.57 115.202 107.11 114.88C105.96 114.074 104.872 113.204 103.808 112.317C101.162 110.115 98.656 107.803 96.3444 105.343C93.9249 102.767 91.5691 100.158 88.9492 97.7264C86.3215 95.2874 83.5621 92.9411 81.2052 90.3008C78.7746 87.5786 76.6868 84.6456 74.2064 81.9556C73.8836 81.6058 73.0974 81.714 72.8809 82.1012C71.2952 84.9364 69.8064 87.8107 67.9113 90.5102C65.7332 93.612 62.9411 96.3034 60.1013 98.9697C57.1448 101.746 54.2824 104.589 51.2046 107.27C48.3787 109.733 45.5329 112.201 42.5376 114.513C41.3544 115.427 40.1458 116.33 38.8497 117.126C38.1388 117.562 37.3675 118.029 36.5835 118.222C36.5531 118.229 36.516 118.225 36.4795 118.22C36.4346 118.16 36.3792 118.149 36.3687 118.135C36.2721 118.007 36.1903 117.872 36.1246 117.731C35.6982 116.828 35.5704 115.804 35.4823 114.843C35.1933 111.691 35.4092 108.361 36.2037 105.273C37.099 101.794 38.4715 98.4393 39.1935 94.9239C40.0434 90.782 41.0671 86.6719 41.9729 82.54C42.7347 79.0614 42.8859 75.4429 43.9827 72.0234C44.0939 71.6764 43.0304 70.5943 42.5786 70.5286C37.0115 69.7201 32.182 69.7216 26.6863 68.5997C23.7436 67.9984 20.8563 67.223 17.9452 66.5243C15.1342 65.8492 12.279 65.3277 9.43928 64.7477C7.15876 64.282 4.85775 63.8258 2.63592 63.1791C2.0889 63.0197 1.53967 62.8486 1.03418 62.6056C1.34423 62.4316 1.75172 62.2416 2.09056 62.0917C2.90998 61.7286 3.74988 61.4001 4.59033 61.0743C7.07128 60.1142 9.57438 59.1961 12.0526 58.2302C17.3046 56.1836 22.1153 53.3854 27.4747 51.5345C30.1794 50.6003 32.9587 49.8392 35.6949 48.9774C38.3935 48.1273 41.0006 47.1005 43.5707 45.9995C45.5932 45.1334 47.5992 44.2233 49.5198 43.2007C50.4743 42.6925 51.6137 42.1588 52.2565 41.3423C53.0981 40.272 54.5409 38.2755 55.1062 37.0903C56.1432 34.9147 56.6022 33.4529 57.6005 31.2645C58.6186 29.0331 59.4026 26.813 60.5182 24.6175C61.7024 22.2818 62.7664 19.9029 63.7073 17.4878C64.6596 15.0503 65.5748 12.6061 66.6843 10.2168C67.7989 7.81518 68.9101 5.41167 70.0932 3.03464C70.3939 2.42998 70.7034 1.8291 71.019 1.23059C72.9441 3.1342 74.7345 5.13422 76.3806 7.21998C78.191 9.51569 79.6356 11.9097 80.8946 14.457C82.1752 17.0477 83.6036 19.5864 84.8366 22.1941C86.0768 24.8161 87.1476 27.5042 88.5318 30.075C89.9076 32.6298 91.6289 35.0452 92.9621 37.6165C92.9804 37.7924 93.0706 37.9725 93.2185 38.1124C93.2246 38.1257 93.2323 38.1384 93.2384 38.1517C93.5557 38.797 102.062 38.1115 105.649 37.9559C109.613 37.7843 113.568 37.4558 117.535 37.2908C121.398 37.13 125.239 36.887 129.095 36.6417C132.632 36.4166 136.173 36.4568 139.706 36.7135C141.08 36.8138 142.454 36.9447 143.81 37.1641C144.28 37.2397 144.749 37.3243 145.209 37.4368L145.226 37.4416C145.21 37.4628 145.196 37.4851 145.179 37.5063C144.879 37.8756 144.501 38.2027 144.131 38.5209Z" fill="#FFD200"/>
<path d="M70.3741 70.0047L76.2235 69.5726C76.2235 69.5726 77.4875 74.7219 72.721 74.7219C67.9546 74.7219 70.3735 70.0043 70.3735 70.0043L70.3741 70.0047ZM70.3741 70.0047L76.2235 69.5726C76.2235 69.5726 77.4875 74.7219 72.721 74.7219C67.9546 74.7219 70.3735 70.0043 70.3735 70.0043L70.3741 70.0047Z" fill="#FFD200"/>
<path d="M145.591 36.7721C144.069 36.0455 141.979 35.959 140.293 35.7945C136.882 35.4612 133.404 35.3326 129.975 35.4876C126.138 35.6616 122.321 36.0228 118.48 36.1609C114.496 36.3041 110.52 36.5419 106.545 36.8014C102.395 37.0723 98.2136 36.549 93.9167 36.6133C92.7939 34.4982 91.6057 33.1144 90.4009 31.0324C88.9072 28.452 87.8009 25.7318 86.5608 23.0597C85.346 20.4421 83.9076 17.9114 82.6325 15.3155C81.3641 12.7319 80.0132 10.2442 78.2077 7.89789C76.1671 5.24214 73.899 2.71906 71.422 0.349348C71.0871 0.0292899 70.3391 0.0898031 70.1176 0.492594C68.9931 2.54106 67.991 4.63869 66.9978 6.73585C65.8544 9.15118 64.6956 11.5637 63.7101 14.0296C62.7263 16.4912 61.8376 18.9813 60.7458 21.4112C59.6789 23.7859 58.4199 26.0911 57.229 28.4208C55.274 32.2473 53.8312 36.2762 51.7068 40.0379C51.5772 40.2668 51.4449 40.4956 51.2943 40.7145C51.2426 40.7911 51.1877 40.8661 51.1299 40.9395C51.1227 40.9476 51.1166 40.9563 51.1116 40.9655L51.0629 41.0057C50.7047 41.3068 50.3863 41.4879 49.9445 41.7432C48.2392 42.7242 46.4193 43.5671 44.5978 44.3779C42.056 45.5087 39.4654 46.5961 36.7879 47.4744C34.0871 48.3595 31.3266 49.104 28.6292 49.9971C23.2243 51.7874 18.4402 54.5526 13.2009 56.6252C10.6424 57.6369 8.05351 58.5923 5.4801 59.5771C3.99408 60.1458 2.35857 60.6715 1.03809 61.5031C0.0232308 62.1423 0.00938928 63.0396 1.07518 63.657C2.41061 64.43 4.20557 64.759 5.73644 65.1169C8.3547 65.7296 11.0045 66.243 13.6482 66.7673C16.5378 67.3403 19.377 68.0333 22.2261 68.7358C27.9858 70.156 33.8557 70.9881 39.7649 71.8097C40.7166 71.9421 41.6678 72.0764 42.619 72.2125C41.8295 75.0533 41.6263 78.0175 41.0511 80.8886C40.2831 84.7222 39.2683 88.5218 38.4644 92.3516C38.0796 94.1873 37.7169 96.0178 37.1688 97.8252C36.6273 99.6089 35.9862 101.37 35.4635 103.158C34.5013 106.45 34.1608 109.942 34.3634 113.33C34.4293 114.436 34.5505 115.567 34.8927 116.638C35.1086 117.314 35.443 118.142 36.1772 118.54C36.8693 118.914 37.6842 118.687 38.3675 118.42C39.4465 117.997 40.4094 117.352 41.3379 116.73C44.3869 114.687 47.112 112.31 49.8576 109.982C52.9907 107.326 55.9827 104.587 58.9188 101.772C62.1599 98.6662 65.6346 95.6869 68.342 92.2102C70.4947 89.4469 72.1152 86.443 73.7701 83.4528C75.6941 85.6488 77.401 87.9833 79.3272 90.1788C81.6016 92.7709 84.3467 96.0656 86.9289 98.4313C89.5943 100.873 91.887 102.5 94.3197 105.11C96.6453 107.601 99.1448 109.97 101.805 112.204C103.002 113.212 104.228 114.205 105.536 115.109C106.381 115.694 107.269 116.309 108.306 116.623C108.555 116.699 108.946 116.623 109.115 116.441C109.737 115.768 109.927 114.913 110.063 114.081C110.285 112.722 110.334 111.347 110.349 109.977C110.388 106.264 110.191 102.54 109.853 98.8392C109.137 91.0047 108.218 83.1668 107.02 75.3743C106.583 72.5236 106.056 69.6847 105.499 66.8495C105.457 66.6401 105.416 66.4307 105.376 66.2208L105.351 66.0936C105.455 65.9957 105.562 65.9007 105.673 65.808C106.577 65.0474 107.574 64.3614 108.557 63.6768C111.767 61.4421 115.055 59.2603 118.487 57.2804C122.156 55.1634 125.832 53.0998 129.254 50.692C132.627 48.3188 135.924 45.8699 139.304 43.5014C140.7 42.5228 142.098 41.5408 143.421 40.4899C144.224 39.8512 145.114 39.1605 145.657 38.3332C145.852 38.0363 145.987 37.7266 146.002 37.3843C146.013 37.1409 145.838 36.8898 145.591 36.7717L145.591 36.7721ZM1.81819 62.3588C1.81709 62.3645 1.81986 62.373 1.82152 62.3805C1.76947 62.3522 1.81819 62.3593 1.81819 62.3588ZM1.78442 62.8046L1.80325 62.7909C1.80214 62.7956 1.79937 62.8004 1.79826 62.8046C1.79937 62.798 1.79273 62.8004 1.78442 62.8046ZM37.088 117.359C37.0857 117.353 37.0824 117.35 37.0802 117.345C37.0957 117.352 37.1062 117.358 37.1057 117.363C37.114 117.286 37.1334 117.475 37.088 117.359ZM143.017 38.8537C141.868 39.8418 140.612 40.7395 139.36 41.6302C136.072 43.9718 132.781 46.3058 129.512 48.6677C126.148 51.0977 122.593 53.2393 118.929 55.3237C115.403 57.3296 112.029 59.5085 108.713 61.7608C107.554 62.5484 106.398 63.3431 105.289 64.1822C104.767 64.5779 103.907 65.0965 103.7 65.7045C103.595 66.0127 103.731 66.3758 103.792 66.6864C103.884 67.1611 103.978 67.6353 104.071 68.1094C104.334 69.4516 104.588 70.7947 104.824 72.1392C106.158 79.719 106.997 87.3682 107.807 94.999C108.249 99.1645 108.58 103.329 108.671 107.512C108.708 109.261 108.723 111.017 108.568 112.762C108.515 113.354 108.446 113.947 108.296 114.527C108.254 114.686 108.206 114.845 108.149 115.001C107.616 114.728 107.03 114.331 106.577 114.013C105.444 113.221 104.374 112.363 103.326 111.492C100.722 109.324 98.2551 107.049 95.9796 104.626C93.5983 102.092 91.279 99.5233 88.7006 97.1298C86.1145 94.7291 83.3977 92.4197 81.0779 89.8209C78.6861 87.1413 76.6303 84.2542 74.1892 81.6067C73.8714 81.2621 73.0985 81.3689 72.8848 81.75C71.3235 84.5406 69.8585 87.3696 67.9927 90.0266C65.8495 93.0801 63.1005 95.729 60.3057 98.3532C57.3956 101.086 54.5775 103.885 51.549 106.524C48.7674 108.947 45.9659 111.377 43.0182 113.653C41.8533 114.552 40.664 115.442 39.3879 116.224C38.688 116.654 37.929 117.113 37.1572 117.303C37.1273 117.31 37.0907 117.306 37.0547 117.301C37.0105 117.243 36.9562 117.231 36.9451 117.217C36.8502 117.092 36.7699 116.959 36.7054 116.82C36.2852 115.931 36.16 114.923 36.0731 113.977C35.7891 110.875 36.0011 107.597 36.7834 104.557C37.6643 101.134 39.0153 97.8313 39.7256 94.3712C40.5627 90.2941 41.5698 86.2492 42.4612 82.1816C43.2114 78.7579 43.3604 75.1961 44.44 71.83C44.5496 71.4882 43.5021 70.4236 43.0581 70.3588C37.5785 69.5636 32.8248 69.5646 27.4155 68.4597C24.5188 67.8688 21.6774 67.1053 18.8117 66.4174C16.0445 65.7527 13.2341 65.2393 10.4392 64.6682C8.19469 64.2101 5.92967 63.7605 3.74271 63.1247C3.204 62.9677 2.66308 62.7994 2.16589 62.5597C2.50298 62.3772 2.84996 62.2084 3.20567 62.0539C4.01235 61.6969 4.83896 61.3731 5.66668 61.053C8.10832 60.1075 10.5721 59.2045 13.0115 58.2534C18.181 56.2394 22.9165 53.4846 28.1912 51.6631C30.8538 50.7436 33.5894 49.9943 36.2829 49.1461C38.9388 48.3093 41.5051 47.2981 44.0342 46.215C46.0257 45.3622 48 44.4668 49.8908 43.4598C50.8303 42.9596 51.9515 42.4339 52.5843 41.6302C53.4132 40.5774 54.8327 38.6121 55.3892 37.4458C56.4096 35.3042 56.8619 33.8651 57.8441 31.7112C58.8462 29.5148 59.618 27.3292 60.7159 25.1683C61.8853 22.8659 62.925 20.5305 63.8552 18.1506C64.7925 15.7514 65.6933 13.346 66.7857 10.9935C67.8825 8.62972 68.9765 6.26451 70.1409 3.92435C70.4374 3.32977 70.7412 2.73784 71.0522 2.14867C72.9471 4.02237 74.7094 5.99097 76.3297 8.04397C78.1114 10.3038 79.5332 12.66 80.7728 15.1675C82.0335 17.718 83.4392 20.2166 84.6534 22.7832C85.8737 25.3644 86.9273 28.0095 88.2904 30.5402C89.6446 33.0553 91.3383 35.4323 92.6505 37.963C92.6687 38.1365 92.7573 38.3138 92.9029 38.4514C92.9096 38.4641 92.9168 38.4769 92.9229 38.4901C93.2351 39.125 101.608 38.4504 105.139 38.2972C109.041 38.1285 112.934 37.8056 116.838 37.6429C120.64 37.4846 124.421 37.2454 128.217 37.0038C131.698 36.7821 135.183 36.8218 138.661 37.0747C140.014 37.173 141.366 37.3016 142.701 37.5177C143.163 37.5924 143.625 37.6756 144.078 37.7862L144.094 37.7909C144.078 37.8122 144.064 37.8335 144.048 37.8547C143.753 38.2188 143.381 38.5402 143.017 38.8537ZM92.2668 57.8373C91.8438 57.6255 91.9102 57.7948 91.6417 58.103C90.7259 59.1544 88.4925 59.6173 87.0242 59.2778C85.5082 58.927 84.0217 57.9626 83.7703 56.654C83.6972 56.2758 83.5261 55.9151 83.1264 56.0092C82.6558 56.1193 82.4731 56.5018 82.5462 56.8814C82.8119 58.2623 83.8866 59.4958 85.3078 60.1917C85.1916 62.0761 83.6247 64.1312 82.2533 65.5031C80.806 66.9512 79.1295 68.0276 77.0179 68.7094C73.1168 69.9697 68.4439 69.0545 65.4337 66.5512C63.9764 65.3391 63.1448 63.8253 62.6133 62.1593C63.466 61.3008 63.92 60.1936 63.6968 58.9663C63.6282 58.5876 63.0723 58.3777 62.6753 58.4708C62.202 58.5819 62.2889 58.8334 62.3581 59.2131C62.4915 59.9501 62.3908 60.6219 61.1666 61.6799C60.6899 62.0156 59.8644 62.6079 59.3063 62.7512C58.0949 63.0618 55.8205 62.893 55.0404 61.7759C54.4934 60.993 53.54 61.4171 54.0892 62.2037C55.3128 63.9553 57.8806 64.247 59.8915 63.6901C60.3666 63.5587 60.8167 63.379 61.2331 63.1615C62.5037 66.3919 65.5344 69.0639 69.3868 70.0652C69.1255 71.0264 68.9372 72.0036 69.1454 72.9878C69.3392 73.9017 70.1448 74.6174 71.1142 75.0453C73.1401 75.9393 75.564 74.6992 76.5617 73.0086C77.1397 72.03 77.4364 70.9309 77.3578 69.8336C79.5498 69.1386 81.4128 67.9411 82.9758 66.4515C84.6838 64.8233 86.8033 62.971 87.1714 60.7448C89.3241 61.1135 91.2608 60.3042 92.5646 58.8074C92.8326 58.5001 92.6239 58.0156 92.2668 57.8373ZM70.5002 72.9949C70.2621 72.1955 70.5722 71.0372 71.0013 70.3796C71.4656 70.4432 71.9339 70.4843 72.4037 70.5025C72.0637 71.5497 71.7476 73.9475 71.8251 74.0553C71.4104 74.0553 70.6514 73.5003 70.5002 72.9949ZM73.9489 73.9201C73.7563 74.0638 73.4617 74.1513 73.2159 74.0832C73.1401 73.8738 73.2159 73.5348 73.6799 71.9856C73.8327 71.4778 73.9667 70.9663 74.1455 70.4647C74.6704 70.4222 75.1908 70.3475 75.7046 70.251C76.0789 71.7 75.1233 73.0422 73.9484 73.9196L73.9489 73.9201ZM66.8405 57.6619C67.2331 58.0174 68.1377 57.886 68.2285 57.3494C68.2692 57.1085 68.2984 56.8662 68.316 56.6233L68.3825 56.5495C68.4578 56.4389 68.4954 56.3198 68.4959 56.1917L68.4666 56.003C68.4433 55.9351 68.4082 55.8706 68.3625 55.8116C68.3802 55.3525 68.3636 54.8925 68.3 54.4358C68.1992 53.7125 68.1062 52.6975 67.1245 52.4446C66.5426 52.2947 65.9895 52.5958 65.7664 53.0483C65.6327 53.3243 65.5415 53.614 65.4951 53.9101C65.3877 54.5535 65.4165 55.2008 65.6236 55.829C65.85 56.5151 66.2676 57.1436 66.8405 57.6619ZM81.7483 55.8678C82.0916 55.8286 82.3225 55.6314 82.4388 55.3596C82.8042 54.5086 82.9105 53.5782 82.7809 52.6753C82.7842 52.6545 82.7959 52.637 82.7975 52.6148C82.8213 52.2545 82.7045 51.9066 82.5069 51.5941C82.5024 51.5823 82.4997 51.5704 82.4947 51.5586C82.4351 51.4089 82.3244 51.2779 82.1769 51.1823C82.1547 51.1605 82.1381 51.135 82.1149 51.1142C81.7738 50.8041 81.0341 50.8466 80.8104 51.2579C80.0663 52.6242 80.0968 54.1919 80.9212 55.5293C81.0751 55.7789 81.4361 55.9037 81.7483 55.8678ZM74.011 59.6532L74.1549 59.7766C74.2308 59.8456 74.3194 59.8948 74.4223 59.9231C74.522 59.9676 74.6283 59.9879 74.7423 59.9846C74.8569 59.9879 74.9638 59.9676 75.0624 59.9231C75.1653 59.8948 75.2545 59.8456 75.3298 59.7766L75.4593 59.6329C75.5346 59.5222 75.5723 59.4031 75.5728 59.275L75.5435 59.0868C75.5052 58.9685 75.4315 58.8606 75.3298 58.7739L75.1858 58.6505C75.113 58.5827 75.0209 58.5322 74.9184 58.5039C74.82 58.4595 74.7096 58.4383 74.5984 58.4425C74.4872 58.4383 74.3767 58.4595 74.2784 58.5039C74.1754 58.5323 74.0863 58.581 74.011 58.6505L73.8814 58.7937C73.8069 58.9022 73.7677 59.0258 73.7679 59.1516L73.7972 59.3402C73.8371 59.4603 73.908 59.5648 74.011 59.6532Z" fill="black"/>
</g>
<defs>
<clipPath id="clip0_196_593">
<rect width="146" height="119" fill="white"/>
</clipPath>
</defs>
</svg>
